<svg enable-background="new 0 0 110.1 57.7" height="228.787565" viewBox="0 0 110.1 57.7" width="437.086692" xmlns="http://www.w3.org/2000/svg"><path d="m60.5 35.6-2-.6-1.6 2.4h7.7l1.4-6.2-6.5-1.7z"/><path d="m38.4.5v3.7h7v-3.7c.1 0 .2-.1.2-.2s-.1-.3-.3-.3-.3.1-.3.3c0 .1.1.2.2.2l-.6 1.2c-.2.4-.8.4-1 0l-.6-1.2c.1 0 .1-.1.1-.2 0-.2-.1-.3-.2-.3s-.3.1-.3.3c0 .1.1.2.1.2l-.4 1c-.2.4-.8.4-1 0l-.5-1.1c.1 0 .1-.1.1-.2s-.1-.3-.3-.3c-.1 0-.3.1-.3.3 0 .1.1.2.1.2l-.4 1.1c-.2.4-.8.5-1 .1l-.6-1.1c.1 0 .2-.1.2-.2s-.1-.3-.3-.3c-.1 0-.3.1-.3.3.2.1.3.2.4.2z"/><path d="m38.3 25.3-1.4 10.7-1.7-.9-1.2 2.3h7.1l2.8-7.5z"/><path d="m76 5.9-19.3 2.4c-.8.1-1.4.6-1.7 1.4 0 0 13.2-.8 16.4-1 3.1-.2 4.2-.8 4.6-2.8z"/><path d="m54.2 12.1 15.1-.2c2 .1 2.8 0 3.5-1.7l-18.2.7z"/><path d="m54.5 5.2c-1.1.2-2.1 1-2.6 2l-2.7 5.5-1.3-3 1.3-1.3v-2.7l-1.1-.3-2.2.5-1.9-.8-2.1.2-2-.2-1.9.8-2.2-.5-1.1.3v2.7l1.3 1.3-.8 4.5 2.3 8.2 8.7 7.4-.2 5.7-1.9-.5-1.5 2.4h7.6l3.5-10.8 14.1 3.5 2.9 5.5-1.7-.6-1.3 2.4h6.6l1.4-1.8-1.3-6.7v-8.9c.9 0 1.6-.7 1.6-1.6v-.4h-1.6l-3.3-2.7c-1.5-1.2-3.4-1.9-5.3-1.9l-11.9-.1-2.7 2.7 2.9-7.5c.3-.8 1-1.3 1.8-1.4 2.4-.3 6.6-1.3 18.2-2.7 3.1-.4 4.2-2.5 4.2-3.9zm-11 7c-.3.2-.5.1-.7-.1l-.8-1.1c0-.1.1-.1.1-.1.3 0 .6-.3.6-.6v-.6h-.9-.8v.6c0 .3.3.6.6.6.1 0 .1.1.1.1l-.8 1.1c-.2.2-.4.2-.6.1h-.1c-.2-.2-.3-.4-.3-.7l.2-2c0-.1 0-.2 0-.3s.2-.3.3-.4c.5-.3 1.4-1.1 1.4-1.1s1 .8 1.4 1.1c.1.1.2.2.3.4v.3l.2 2c.1.3 0 .5-.2.7z"/><path d="m29.5 41.7h-24.5s-5-.1-5 5c0 0-.2 5.3 5 5.3h4.8s.7 0 .7.5c0 0 .2.8-.7.8h-9.4c-.2 0-.2.2-.2.2v3.9s0 .2.2.2h10.1s4.6.4 4.8-4.8c0 0 .3-5.3-4.8-5.3h-4.9s-.6.1-.6-.7c0 0-.1-.7.6-.7h11.3s.2 0 .2.2v11s0 .2.2.3h4.2c.2 0 .2-.2.2-.2v-11s0-.3.2-.3h4.1s1.1 0 1.7-.9z"/><path d="m76.6 57.3v-3.4c0-.3-.2-.2-.2-.2h-6.1s-.6 0-.6-.9v-10.9c0-.3-.2-.2-.2-.2h-4c-.2 0-.2.3-.2.3v12.9s.1 2.6 3 2.6h.1 8.1c-.2 0 .1 0 .1-.2"/><path d="m98.5 48.5 4.2-6.6s.1-.2.4-.2h4.5s.1 0 .1.2l-6.5 10c-.6.9-.6 1.7-.6 1.7v3.8s0 .2-.2.2h-4c-.2 0-.2-.2-.2-.2v-3.9c0-.9-.4-1.4-.4-1.4l-4.1-6.3c0-.1-.2-.1-.2-.1h-8.5c-.2 0-.2.2-.2.2v1.6s0 .2.2.2h7.2s.2 0 .2.3v3.2s0 .3-.2.3h-7.2c-.2 0-.2.2-.2.2v1.6s0 .2.2.2h8s.2 0 .2.3v3.4s0 .3-.2.3h-11c-1.9 0-2-2.2-2-2.2v-13.3s0-.3.2-.3h15.8s.1 0 .2.1l4.1 6.7s.1.1.2 0"/><path d="m46.9 57.3s0 .2.2.2h4s.2 0 .2-.2v-8.7s0-.1.1-.1h.1l4.4 6.8c1.7 2.4 3.7 2.2 3.7 2.2h3.7v-4.2-11.3c0-.3-.2-.3-.2-.3h-4c-.2 0-.2.3-.2.3v9c0 .1-.1.1-.1.1-.1 0-.1-.1-.1-.1l-4.8-7.4c-1-1.6-2.6-1.9-3.3-1.9h-3.7z"/><path d="m38.2 43.5c-1-1.5-2.4-1.9-3.8-1.8-1.4 0-2.7.3-3.8 1.8-2.5 4.8-7.3 14-7.3 14h5c.2-.4.7-1.3 1.2-2.4h5c.8 0 1.6-.3 2.1-1.3.3-.6.7-1.3.9-1.8 1.2 2.5 2.4 4.9 2.8 5.5h5c.2 0-4.6-9.6-7.1-14m-6.6 7.9c1.5-3 2.9-5.9 2.9-5.9s1.4 2.9 2.9 5.9z"/><path d="m106.2 53.2h1.1c.6 0 1.1.2 1.1.9 0 .4-.3.8-.7.8l.8 1.3h-.7l-.7-1.3h-.4v1.3h-.5zm.9 1.3c.3 0 .7 0 .7-.4s-.3-.4-.6-.4h-.5v.8z"/><path d="m107.2 52.3c1.3 0 2.4 1.1 2.4 2.4s-1.1 2.4-2.4 2.4-2.4-1.1-2.4-2.4 1.1-2.4 2.4-2.4m0-.5c-1.6 0-2.9 1.3-2.9 2.9s1.3 2.9 2.9 2.9 2.9-1.3 2.9-2.9-1.3-2.9-2.9-2.9z"/></svg>